PathFileType	4	(X/Y/Z)	D:\TRACE\v60_Jaco2_6-2-23\BothDRS_Motion3_9-platform.trc
DataRate	CameraRate	NumFrames	NumMarkers	Units	OrigDataRate	OrigDataStartFrame	OrigNumFrames
100.00	100.00	      67	5	mm	100.00	6126	      7000
Frame#	Time	Left_Front			Right_Front			Left_Aft			Right_Aft			Post			
		X1	Y1	Z1	X2	Y2	Z2	X3	Y3	Z3	X4	Y4	Z4	X5	Y5	Z5	

6126	61.250	-785.21130	36.99808	-644.09332	785.30560	35.23712	-620.96149	-716.07367	-7.17417	491.55695	697.54114	-14.27124	594.77112	8.94616	1346.77917	-903.61865	
6127	61.260	-785.23254	36.74910	-644.30139	785.32288	35.06810	-621.01331	-716.13763	-7.09294	491.56320	697.42346	-14.20757	594.68933	9.02124	1346.49561	-904.29785	
6128	61.270	-785.19672	36.55665	-644.38379	785.25165	35.00593	-620.98669	-716.17535	-6.93036	491.62219	697.33411	-14.08366	594.67853	9.15458	1346.22180	-904.86420	
6129	61.280	-785.15295	36.75621	-644.02869	785.15411	34.76540	-621.00446	-716.14923	-6.83142	491.66446	697.34631	-14.00606	594.69495	9.31248	1345.88428	-905.07684	
6130	61.290	-785.07422	36.56885	-644.12061	785.24567	34.56990	-621.11853	-716.05920	-6.83337	491.54300	697.47876	-13.86610	594.62128	9.27472	1345.70984	-905.17358	
6131	61.300	-785.09326	36.43030	-644.24731	785.34052	34.50407	-621.27698	-715.98132	-6.68624	491.55402	697.56421	-13.69597	594.54956	9.19860	1345.57104	-905.30542	
6132	61.310	-785.19928	36.22540	-644.39972	785.32831	34.32021	-621.28741	-715.98560	-6.50159	491.47073	697.41840	-13.52645	594.47809	9.08651	1345.36292	-905.41156	
6133	61.320	-784.92950	35.83485	-644.11169	785.34558	34.04217	-621.27905	-716.00165	-6.36237	491.44357	697.21759	-13.37024	594.47437	8.98394	1345.02576	-905.34283	
6134	61.330	-785.03650	35.59845	-644.30396	785.28119	33.78402	-621.35388	-716.07391	-6.18123	491.39136	697.11115	-13.24368	594.35229	9.02704	1344.55811	-905.34534	
6135	61.340	-785.09509	35.36797	-644.37317	785.25415	33.53971	-621.47345	-716.00354	-6.03482	491.37082	696.99353	-13.13010	594.27277	9.14388	1344.15906	-905.69897	
6136	61.350	-785.24719	35.06620	-644.53369	785.29059	33.33486	-621.55817	-715.94220	-5.90163	491.33902	697.94525	-12.15161	594.23499	8.92903	1343.78357	-906.44946	
6137	61.360	-785.22638	34.97267	-644.59229	785.31299	33.10786	-621.61835	-715.94312	-5.79914	491.33380	697.88654	-12.07057	594.16956	9.07904	1343.49475	-906.93610	
6138	61.370	-785.23267	34.91895	-644.61505	785.32269	33.01549	-621.58051	-715.82202	-5.79881	491.22128	698.00342	-11.94053	594.12073	9.02420	1343.31226	-907.50763	
6139	61.380	-785.28412	34.79387	-644.68134	785.25391	32.60418	-621.73297	-715.95587	-5.66433	491.30096	698.13708	-11.71412	594.10400	8.86358	1342.83459	-908.38281	
6140	61.390	-785.34131	34.52137	-644.77722	785.23547	32.26440	-621.80054	-716.04425	-5.51282	491.23328	698.03876	-11.41848	594.03174	8.83369	1342.48181	-909.34387	
6141	61.400	-785.38666	34.25965	-644.90753	785.28058	32.00077	-621.88788	-716.10345	-5.29830	491.05099	698.01892	-11.05658	594.00714	8.95099	1342.09680	-910.45258	
6142	61.410	-785.41388	33.83300	-645.09448	785.19409	31.73473	-621.97021	-716.08740	-4.98200	490.88693	698.04907	-10.81912	593.91815	8.98460	1341.83801	-911.34436	
6143	61.420	-785.41382	33.46926	-645.19177	785.24304	31.38852	-622.14197	-715.99994	-4.73210	490.84213	698.11249	-10.52955	593.87775	8.82905	1341.43896	-912.14917	
6144	61.430	-784.91333	32.71967	-644.56488	785.39716	31.16243	-622.23816	-715.98932	-4.41206	490.77673	698.31140	-10.23526	593.75952	9.05642	1340.67114	-913.05988	
6145	61.440	-784.81641	32.46869	-644.55042	785.49713	30.96099	-622.24274	-715.83063	-4.17214	490.83173	697.60651	-10.76701	593.43927	9.30929	1340.35022	-913.48071	
6146	61.450	-785.14429	31.87241	-645.53918	785.64227	30.58879	-622.34302	-715.67249	-3.94632	490.90445	697.52753	-10.12354	593.79840	9.48663	1339.81641	-914.23895	
6147	61.460	-785.04602	32.03181	-645.27283	785.78625	30.24556	-622.54700	-715.34637	-3.72986	490.82840	697.61047	-9.91282	593.71655	9.73849	1339.41846	-914.83624	
6148	61.470	-784.92902	31.82254	-645.48224	785.93610	29.97542	-622.67480	-715.17249	-3.51959	490.71829	697.91193	-9.52433	593.78949	9.83134	1338.89368	-915.35785	
6149	61.480	-784.72546	31.39991	-645.61749	786.03583	29.45456	-622.75513	-715.25568	-3.22330	490.60840	697.81329	-9.16818	593.97461	9.72978	1338.32166	-915.64581	
6150	61.490	-784.58368	30.91866	-645.73120	786.12061	29.08005	-622.79962	-715.26276	-2.87834	490.51825	698.20929	-8.80777	593.42609	10.01870	1337.58862	-916.38147	
6151	61.500	-784.48987	30.54871	-645.79401	786.19208	28.69028	-622.84143	-715.07715	-2.69979	490.40625	698.44183	-8.36746	593.27655	10.22414	1337.09802	-917.46686	
6152	61.510	-784.31128	30.20742	-645.85315	786.29224	28.33742	-622.94434	-714.93518	-2.43816	490.29355	698.89117	-8.04003	593.30151	10.43342	1336.74548	-918.16223	
6153	61.520	-784.18689	29.94521	-645.93335	786.49200	27.90776	-623.17926	-714.83014	-2.14135	490.12448	698.85840	-8.04896	593.23938	10.13037	1336.12927	-919.19403	
6154	61.530	-783.91205	29.59025	-645.93463	786.63428	27.58323	-623.20447	-714.68292	-1.81549	490.13272	698.83148	-7.83211	593.16168	10.31129	1335.56958	-920.48285	
6155	61.540	-783.58221	29.09157	-645.83832	786.78278	27.32753	-623.19843	-714.56610	-1.66426	490.15451	698.77588	-7.67559	593.09113	10.66478	1335.10474	-921.55292	
6156	61.550	-783.39691	28.57537	-645.73810	786.92297	27.03973	-623.27551	-714.47632	-1.52840	490.17520	699.52936	-6.68557	593.03406	10.83946	1334.72778	-922.45026	
6157	61.560	-783.20593	28.01580	-645.89856	787.10541	26.70024	-623.39197	-714.34772	-1.24996	489.99466	700.00647	-6.03548	593.10553	10.94820	1334.26355	-923.49713	
6158	61.570	-783.07910	27.72828	-646.15961	787.31207	26.29074	-623.45807	-714.09711	-0.97108	489.81989	699.77545	-6.18184	592.90607	11.35273	1333.71301	-924.58704	
6159	61.580	-783.00677	27.40500	-646.42828	787.47876	25.84951	-623.66669	-713.93646	-0.54811	489.76526	699.80316	-6.10812	592.80157	11.68694	1333.27527	-925.10956	
6160	61.590	-782.85406	26.87389	-646.79767	787.62915	25.57252	-623.72754	-713.66882	-0.31850	489.76199	699.59528	-5.75052	592.94379	11.60946	1332.53076	-925.58575	
6161	61.600	-782.87494	26.78750	-646.69440	787.78870	25.10497	-623.78668	-713.50372	-0.19070	489.81610	700.02740	-5.23187	592.80011	11.95244	1332.03613	-926.18256	
6162	61.610	-782.56738	26.55894	-646.75928	787.97125	24.66834	-623.84790	-713.19763	0.00044	489.72327	700.52808	-4.71114	592.49689	11.90408	1331.44568	-926.59875	
6163	61.620	-782.45123	26.32563	-646.84589	788.17120	24.11932	-624.02795	-713.01025	0.34243	489.57272	700.87964	-4.25542	592.42578	12.18081	1330.67249	-927.50800	
6164	61.630	-782.25061	25.96751	-647.05200	788.31104	23.81281	-624.15961	-712.79425	0.63500	489.34671	701.27399	-3.92632	592.47327	12.45167	1330.26050	-928.32001	
6165	61.640	-781.92957	25.42192	-646.92859	788.52789	23.45009	-624.26672	-712.68085	0.96030	489.16138	701.18536	-3.83410	592.37848	12.48197	1329.89294	-929.14966	
6166	61.650	-781.78223	24.72983	-646.84869	788.67694	23.07284	-624.36072	-712.52576	1.28116	489.15259	701.39905	-3.51617	592.32172	12.80144	1329.25879	-929.99475	
6167	61.660	-781.93176	24.39700	-647.23553	788.81555	22.73439	-624.42877	-712.28052	1.54634	489.09854	701.50543	-3.27304	592.27325	13.39214	1328.58960	-931.02814	
6168	61.670	-781.62177	23.67866	-647.72211	789.21881	22.44517	-624.54474	-712.11090	1.78465	488.92346	701.69586	-3.04255	592.15289	13.50298	1328.31970	-932.32190	
6169	61.680	-781.22357	23.22924	-647.99750	789.44879	22.09104	-624.62622	-712.02386	2.01576	488.83545	701.71631	-2.87268	592.06787	13.52456	1327.69141	-933.43512	
6170	61.690	-780.75854	22.88238	-648.14648	789.64282	21.91851	-624.51965	-711.82770	2.23818	488.73663	702.03448	-2.71617	591.99188	13.67918	1327.21619	-934.24829	
6171	61.700	-780.55444	23.05806	-647.60962	789.81653	21.44826	-624.75751	-711.58508	2.48008	488.68484	702.08533	-2.35539	591.92419	14.05654	1326.75903	-935.27435	
6172	61.710	-780.31061	22.68293	-647.51727	790.04932	21.00298	-624.89734	-711.30286	2.71535	488.72159	702.71399	-1.84520	591.78857	14.10114	1325.93835	-936.17194	
6173	61.720	-780.23273	22.49489	-647.52637	790.35986	20.56820	-624.85394	-711.09033	2.97745	488.57123	703.01886	-1.32416	591.79755	14.18076	1325.38586	-936.95685	
6174	61.730	-780.07239	22.20844	-647.59973	790.49042	20.21503	-624.90869	-710.82379	3.32194	488.49500	703.14978	-1.06730	591.76965	14.21473	1325.22412	-937.46527	
6175	61.740	-779.91266	21.84292	-647.75726	790.68073	19.86088	-624.97668	-710.52649	3.53390	488.35928	703.28119	-0.87404	591.66028	14.86473	1324.92773	-938.15332	
6176	61.750	-779.82745	21.55633	-647.92151	790.86237	19.60359	-625.01056	-710.48315	3.70491	488.31021	703.33527	-0.66945	591.53845	15.26735	1324.03235	-938.60779	
6177	61.760	-779.48535	20.87909	-648.15991	791.04950	19.18873	-625.13867	-710.37549	3.94346	488.23557	703.41846	-0.42646	591.44617	15.54574	1323.56250	-939.26453	
6178	61.770	-779.28455	20.40678	-648.28577	791.29822	18.88120	-625.30798	-710.17126	4.17970	488.23654	703.60406	-0.21432	591.35480	15.54131	1323.08411	-939.78210	
6179	61.780	-779.16205	20.17752	-648.25757	791.45343	18.62037	-625.39185	-709.86285	4.49398	488.17865	703.98547	0.06976	591.21509	15.63836	1322.68652	-940.18378	
6180	61.790	-778.87158	19.99179	-648.09424	791.61993	18.35972	-625.48291	-709.62823	4.67909	488.10901	704.34424	0.32381	591.18365	15.52687	1322.27759	-941.05219	
6181	61.800	-778.41821	19.71935	-648.01678	791.81989	18.16618	-625.59497	-709.54218	4.82277	488.03418	704.45135	0.48009	591.12244	15.97953	1321.82874	-941.96454	
6182	61.810	-778.41919	19.47940	-648.48096	792.02124	17.97718	-625.62012	-709.41156	4.89730	487.98187	704.57184	0.65910	591.05420	16.36221	1321.40942	-942.48651	
6183	61.820	-778.35510	19.30926	-648.49170	792.23877	17.74763	-625.69043	-709.26343	4.95887	487.89700	704.69763	0.88223	590.95813	16.29107	1321.05725	-943.12000	
6184	61.830	-778.12305	19.08499	-648.65314	792.35522	17.31694	-625.80139	-709.01520	5.10966	487.80368	704.83600	1.17433	590.88599	16.15432	1320.73181	-943.82672	
6185	61.840	-778.02515	18.79386	-648.75397	792.59576	16.75988	-625.87891	-708.73187	5.35603	487.63803	705.00262	1.37455	590.85406	16.33200	1320.41003	-944.52148	
6186	61.850	-777.97681	18.53243	-648.82666	792.71552	16.74873	-626.00299	-708.45660	5.75187	487.47519	705.12390	1.61425	590.86981	17.20055	1319.94580	-945.17389	
6187	61.860	-777.79761	18.35861	-648.96686	792.79523	16.36487	-626.02832	-708.47906	6.01855	487.62189	705.60187	1.81845	590.70789	17.30175	1319.42102	-945.91595	
6188	61.870	-777.66315	18.23346	-649.04590	792.93304	15.99780	-626.06927	-708.24347	6.20271	487.71579	705.40875	2.28396	590.81439	17.33696	1318.97058	-946.32880	
6189	61.880	-777.52411	17.87492	-649.22528	793.21082	15.73605	-626.19263	-708.11475	6.34244	487.62888	705.74304	2.52871	590.64325	17.48475	1318.57996	-946.83594	
6190	61.890	-777.31305	17.62515	-649.32849	793.34039	15.64237	-626.22662	-708.08124	6.52161	487.58453	705.92902	2.70226	590.55286	17.51904	1318.19336	-947.53064	
6191	61.900	-777.17041	17.47667	-649.22034	793.46716	15.55838	-626.24396	-708.01196	6.54940	487.58768	706.01758	2.84782	590.48456	17.89483	1318.09766	-948.02545	
6192	61.910	-776.95526	17.42720	-649.09741	793.63324	15.32802	-626.14374	-708.09485	6.93505	487.38699	706.08093	2.84966	590.49762	17.77564	1318.00720	-948.61469	
